<?xml version='1.0' encoding='utf-8'?>
<svg xmlns="http://www.w3.org/2000/svg" width="160.43573mm" height="101.1759mm" viewBox="0 0 160.43573 101.17589" version="1.1" id="svg8"> <title id="title831">Hummingbird (2 colors)</title> <defs id="defs2"/> <metadata id="metadata5"> </metadata> <g id="layer1" transform="translate(-25.152103,-160.2279)"> <path style="fill:#b91c1c;fill-opacity:1;stroke:none;stroke-width:0.26458332px;stroke-linecap:butt;stroke-linejoin:miter;stroke-opacity:1" d="m 59.925497,203.57444 c 0,0 -2.177843,-35.74282 6.987109,-38.50221 8.863715,-2.66869 -7.148232,2.12032 -6.987109,38.50221 z" id="path976"/> <path id="path978" d="m 134.59774,225.11124 c 0,0 6.87817,-72.89196 15.85174,-46.40492 1.80055,5.31464 -5.93819,9.26818 -15.85174,46.40492 z" style="fill:#b91c1c;fill-opacity:1;stroke:none;stroke-width:0.26458332px;stroke-linecap:butt;stroke-linejoin:miter;stroke-opacity:1"/> <path id="path980" d="m 67.782502,231.53022 34.481748,-3.49585 0.15891,27.80786 z" style="fill:#b91c1c;fill-opacity:1;stroke:none;stroke-width:0.26458332px;stroke-linecap:butt;stroke-linejoin:miter;stroke-opacity:1"/> <path id="path984" d="m 60.43337,204.9758 -5.280957,17.86536 20.224939,24.607 54.832028,-21.01146 -24.83172,-23.93284 z" style="fill:#b91c1c;fill-opacity:1;stroke:none;stroke-width:0.26458332px;stroke-linecap:butt;stroke-linejoin:miter;stroke-opacity:1"/> <path id="path986" d="M 75.886496,226.76315 140.87746,261.4038 117.51885,220.72488 Z" style="fill:#b91c1c;fill-opacity:1;stroke:none;stroke-width:0.26458332px;stroke-linecap:butt;stroke-linejoin:miter;stroke-opacity:1"/> <path id="path988" d="m 60.155201,203.56345 c 0,0 2.172099,-40.81623 18.273742,-41.47344 15.572397,-0.6356 -12.553266,0.47671 -18.273742,41.47344 z" style="fill:#b91c1c;fill-opacity:1;stroke:none;stroke-width:0.26458332px;stroke-linecap:butt;stroke-linejoin:miter;stroke-opacity:1"/> <path id="path990" d="M 61.267515,204.35796 C 72.164002,171.07637 98.162029,174.4029 93.206837,182.58838 91.690248,185.09362 73.576213,182.3956 61.267515,204.35796 Z" style="fill:#b91c1c;fill-opacity:1;stroke:none;stroke-width:0.26458332px;stroke-linecap:butt;stroke-linejoin:miter;stroke-opacity:1"/> <circle r="6.435534" cy="215.08383" cx="72.311211" id="circle992" style="opacity:1;fill:#ffffff;fill-opacity:1;fill-rule:nonzero;stroke:none;stroke-width:0.09999999;stroke-miterlimit:4;stroke-dasharray:none;stroke-dashoffset:0;stroke-opacity:1"/> <path id="path994" d="m 134.65864,225.16548 c 5.56157,-40.20222 29.23799,-70.07581 28.44347,-47.51172 -0.7945,22.5641 -11.44094,12.39437 -28.44347,47.51172 z" style="fill:#7f1d1d;fill-opacity:1;stroke:none;stroke-width:0.26458332px;stroke-linecap:butt;stroke-linejoin:miter;stroke-opacity:1"/> <path id="path996" d="m 134.65864,225.16548 c 0,0 23.3586,-51.64317 44.49258,-34.48175 21.13397,17.16142 -13.98339,11.28205 -44.49258,34.48175 z" style="fill:#b91c1c;fill-opacity:1;stroke:none;stroke-width:0.26458332px;stroke-linecap:butt;stroke-linejoin:miter;stroke-opacity:1"/> <circle style="opacity:1;fill:#7f1d1d;fill-opacity:1;fill-rule:nonzero;stroke:none;stroke-width:0.09999999;stroke-miterlimit:4;stroke-dasharray:none;stroke-dashoffset:0;stroke-opacity:1" id="circle998" cx="72.311188" cy="216.90973" r="4.1040487"/> <circle r="1.6882929" cy="213.70743" cx="71.637024" id="circle1000" style="opacity:1;fill:#ffffff;fill-opacity:1;fill-rule:nonzero;stroke:none;stroke-width:0.09999999;stroke-miterlimit:4;stroke-dasharray:none;stroke-dashoffset:0;stroke-opacity:1"/> <circle style="opacity:1;fill:#ffffff;fill-opacity:1;fill-rule:nonzero;stroke:none;stroke-width:0.09999999;stroke-miterlimit:4;stroke-dasharray:none;stroke-dashoffset:0;stroke-opacity:1" id="circle1002" cx="74.502228" cy="215.98273" r="0.87367743"/> <path id="path1004" d="m 60.160824,203.57202 c 0,0 -0.970664,-40.96338 12.260377,-42.9404 12.796153,-1.91204 -10.317679,1.50569 -12.260377,42.9404 z" style="fill:#7f1d1d;fill-opacity:1;stroke:none;stroke-width:0.26458332px;stroke-linecap:butt;stroke-linejoin:miter;stroke-opacity:1"/> <path style="fill:#b91c1c;fill-opacity:1;stroke:none;stroke-width:0.26458332px;stroke-linecap:butt;stroke-linejoin:miter;stroke-opacity:1" d="m 60.155201,203.56345 c 0,0 2.172099,-40.81623 18.273742,-41.47344 15.572397,-0.6356 -12.553266,0.47671 -18.273742,41.47344 z" id="path1006"/> <path id="path982" d="m 25.152103,235.53792 33.595859,-18.65188 4.382075,7.4158 z" style="fill:#7f1d1d;fill-opacity:1;stroke:none;stroke-width:0.26458332px;stroke-linecap:butt;stroke-linejoin:miter;stroke-opacity:1"/> </g> </svg>