<?xml version="1.0" encoding="UTF-8" standalone="no"?>
<svg
   viewBox="0 0 622.29517 65.072869"
   version="1.1"
   id="svg4"
   sodipodi:docname="green-47700.svg"
   width="622.29517"
   height="65.072868"
   inkscape:version="1.3.2 (091e20e, 2023-11-25)"
   xmlns:inkscape="http://www.inkscape.org/namespaces/inkscape"
   xmlns:sodipodi="http://sodipodi.sourceforge.net/DTD/sodipodi-0.dtd"
   xmlns="http://www.w3.org/2000/svg"
   xmlns:svg="http://www.w3.org/2000/svg">
  <defs
     id="defs4" />
  <sodipodi:namedview
     id="namedview4"
     pagecolor="#ffffff"
     bordercolor="#000000"
     borderopacity="0.25"
     inkscape:showpageshadow="2"
     inkscape:pageopacity="0.0"
     inkscape:pagecheckerboard="0"
     inkscape:deskcolor="#d1d1d1"
     inkscape:zoom="1.1048543"
     inkscape:cx="231.70475"
     inkscape:cy="89.604571"
     inkscape:window-width="1920"
     inkscape:window-height="946"
     inkscape:window-x="0"
     inkscape:window-y="25"
     inkscape:window-maximized="1"
     inkscape:current-layer="svg4" />
  <path
     d="m 130.14822,35.784828 c 5.35669,-7.5674 3.67922,-18.679 -0.89945,-21.885 -8.0774,-5.8562996 -16.90594,6.3663 -12.85977,18.527 4.03825,12.517 14.14705,21.268 27.90942,23.77 29.85587,5.2656 88.91144,-27.178 126.36376,-37.106 27.82227,-7.375 44.81736,3.707 53.9876,15.981 -18.84838,-13.327 -36.02679,-8.692 -53.7061,-5.4198 -40.56383,7.5078 -82.52213,39.384 -126.98486,34.37 -20.75776,-3.0955 -35.30151,-23.671 -34.10539,-39.805 0.10623,-1.4338 0.33678,-2.8325 0.69836,-4.1808 2.73244,-9.5617 7.53334,-13.4829996 11.78687,-14.6459996 11.56148,-3.1619 23.01376,17.8719996 7.80873,30.3949996 z"
     fill="#007f00"
     fill-rule="evenodd"
     id="path1"
     style="stroke-width:1.00089" />
  <path
     d="m 119.96018,42.624828 c -8.22757,-7.289 -16.7156,-18.602 -24.290009,-23.606 -79.628003,-52.616 -120.443278,18.467 -79.605964,38.895 6.300657,3.152 19.357277,5.044 28.711842,-7.507 -11.446269,8.713 -24.146758,5.722 -29.39405,1.216 -13.9667317,-11.992 -9.069059,-29.009 7.356226,-36.78 25.871813,-9.8609996 49.239192,0.688 69.687401,15.316 14.603854,8.736 18.352494,12.813 30.120334,18.151 -6.68584,0.27699 -3.17362,-8.494 -9.53588,-12.61 l 6.9493,6.925 z"
     fill="#007f00"
     fill-rule="evenodd"
     id="path2"
     style="stroke-width:1.00089" />
  <path
     d="m 487.48098,33.504828 c -5.68136,7.631 -3.90221,18.836 0.95396,22.069 8.56697,5.9056 17.93075,-6.42 13.63915,-18.683 -4.28289,-12.623 -15.00457,-21.447 -29.60042,-23.97 -31.66607,-5.3099996 -94.29998,27.407 -134.02733,37.418 -29.50825,7.437 -47.53317,-3.7382 -57.25939,-16.115 19.9904,13.439 38.20966,8.7652 56.96086,5.4654 43.02319,-7.571 87.52399,-39.71599954 134.67849,-34.6599996 22.01598,3.1216 37.4413,23.8699996 36.17305,40.1409996 -0.11269,1.4459 -0.35726,2.8563 -0.74075,4.216 -2.89803,9.6422 -7.98995,13.597 -12.50114,14.77 -12.26171,3.1885 -24.40822,-18.022 -8.28196,-30.651 z"
     fill="#007f00"
     fill-rule="evenodd"
     id="path3"
     style="stroke-width:1.00089" />
  <path
     d="m 496.64776,22.784828 c 8.6182,7.2313 17.509,18.455 25.442,23.42 83.405,52.199 126.15,-18.321 83.382,-38.5869996 -6.5996,-3.127 -20.276,-5.004 -30.074,7.4470996 11.989,-8.6441996 25.293,-5.6761996 30.788,-1.2067 14.63,11.898 9.4992,28.78 -7.7049,36.49 -27.099,9.783 -51.575,-0.68277 -72.993,-15.196 -15.297,-8.6669 -19.223,-12.712 -31.549,-18.007 7.0028,-0.27502 3.324,8.4268 9.9878,12.51 l -7.2793,-6.8706 z"
     fill="#007f00"
     fill-rule="evenodd"
     id="path4" />
</svg>
